<mxfile host="app.diagrams.net" modified="2023-11-11T22:06:09.226Z" agent="Mozilla/5.0 (Windows NT 10.0; Win64; x64) AppleWebKit/537.36 (KHTML, like Gecko) Chrome/116.0.0.0 Safari/537.36 OPR/102.0.0.0" etag="am7DayXKcOFZsdf7afTD" version="22.1.0" type="device">
  <diagram name="P치gina-1" id="dNVNUwCBQQ5xVrcDa9XC">
    <mxGraphModel dx="1393" dy="1973" grid="1" gridSize="10" guides="1" tooltips="1" connect="1" arrows="1" fold="1" page="1" pageScale="1" pageWidth="827" pageHeight="1169" math="0" shadow="0">
      <root>
        <mxCell id="0" />
        <mxCell id="1" parent="0" />
        <mxCell id="1Qj1EWtWnRj9azj7bhN6-5" value="Veterinario&lt;span style=&quot;white-space: pre;&quot;&gt;&#x9;&lt;/span&gt;" style="swimlane;fontStyle=1;align=center;verticalAlign=top;childLayout=stackLayout;horizontal=1;startSize=26;horizontalStack=0;resizeParent=1;resizeParentMax=0;resizeLast=0;collapsible=1;marginBottom=0;whiteSpace=wrap;html=1;" vertex="1" parent="1">
          <mxGeometry x="40" y="-1150" width="310" height="190" as="geometry" />
        </mxCell>
        <mxCell id="1Qj1EWtWnRj9azj7bhN6-6" value="- nombre: String&lt;br&gt;&lt;br&gt;- apellido: String&lt;br&gt;&lt;br&gt;- matricula: String" style="text;strokeColor=none;fillColor=none;align=left;verticalAlign=top;spacingLeft=4;spacingRight=4;overflow=hidden;rotatable=0;points=[[0,0.5],[1,0.5]];portConstraint=eastwest;whiteSpace=wrap;html=1;" vertex="1" parent="1Qj1EWtWnRj9azj7bhN6-5">
          <mxGeometry y="26" width="310" height="104" as="geometry" />
        </mxCell>
        <mxCell id="1Qj1EWtWnRj9azj7bhN6-7" value="" style="line;strokeWidth=1;fillColor=none;align=left;verticalAlign=middle;spacingTop=-1;spacingLeft=3;spacingRight=3;rotatable=0;labelPosition=right;points=[];portConstraint=eastwest;strokeColor=inherit;" vertex="1" parent="1Qj1EWtWnRj9azj7bhN6-5">
          <mxGeometry y="130" width="310" height="8" as="geometry" />
        </mxCell>
        <mxCell id="1Qj1EWtWnRj9azj7bhN6-8" value="+realizarDiagn칩stico(Mascota): Diagn칩stico" style="text;strokeColor=none;fillColor=none;align=left;verticalAlign=top;spacingLeft=4;spacingRight=4;overflow=hidden;rotatable=0;points=[[0,0.5],[1,0.5]];portConstraint=eastwest;whiteSpace=wrap;html=1;" vertex="1" parent="1Qj1EWtWnRj9azj7bhN6-5">
          <mxGeometry y="138" width="310" height="52" as="geometry" />
        </mxCell>
        <mxCell id="1Qj1EWtWnRj9azj7bhN6-19" value="Mascota" style="swimlane;fontStyle=1;align=center;verticalAlign=top;childLayout=stackLayout;horizontal=1;startSize=26;horizontalStack=0;resizeParent=1;resizeParentMax=0;resizeLast=0;collapsible=1;marginBottom=0;whiteSpace=wrap;html=1;" vertex="1" parent="1">
          <mxGeometry x="40" y="-930" width="230" height="170" as="geometry" />
        </mxCell>
        <mxCell id="1Qj1EWtWnRj9azj7bhN6-20" value="- nombre: String&lt;br&gt;&lt;br&gt;- raza: String" style="text;strokeColor=none;fillColor=none;align=left;verticalAlign=top;spacingLeft=4;spacingRight=4;overflow=hidden;rotatable=0;points=[[0,0.5],[1,0.5]];portConstraint=eastwest;whiteSpace=wrap;html=1;" vertex="1" parent="1Qj1EWtWnRj9azj7bhN6-19">
          <mxGeometry y="26" width="230" height="64" as="geometry" />
        </mxCell>
        <mxCell id="1Qj1EWtWnRj9azj7bhN6-21" value="" style="line;strokeWidth=1;fillColor=none;align=left;verticalAlign=middle;spacingTop=-1;spacingLeft=3;spacingRight=3;rotatable=0;labelPosition=right;points=[];portConstraint=eastwest;strokeColor=inherit;" vertex="1" parent="1Qj1EWtWnRj9azj7bhN6-19">
          <mxGeometry y="90" width="230" height="8" as="geometry" />
        </mxCell>
        <mxCell id="1Qj1EWtWnRj9azj7bhN6-22" value="+ dejarMascota(): void&lt;br&gt;&lt;br&gt;+ retirarMascota():Void" style="text;strokeColor=none;fillColor=none;align=left;verticalAlign=top;spacingLeft=4;spacingRight=4;overflow=hidden;rotatable=0;points=[[0,0.5],[1,0.5]];portConstraint=eastwest;whiteSpace=wrap;html=1;" vertex="1" parent="1Qj1EWtWnRj9azj7bhN6-19">
          <mxGeometry y="98" width="230" height="72" as="geometry" />
        </mxCell>
        <mxCell id="1Qj1EWtWnRj9azj7bhN6-23" value="Diagn칩stico" style="swimlane;fontStyle=1;align=center;verticalAlign=top;childLayout=stackLayout;horizontal=1;startSize=26;horizontalStack=0;resizeParent=1;resizeParentMax=0;resizeLast=0;collapsible=1;marginBottom=0;whiteSpace=wrap;html=1;" vertex="1" parent="1">
          <mxGeometry x="380" y="-1150" width="230" height="130" as="geometry" />
        </mxCell>
        <mxCell id="1Qj1EWtWnRj9azj7bhN6-24" value="-fecha: date&lt;br&gt;&lt;br&gt;-descripcion: String&lt;br&gt;&lt;br&gt;- mascotaAsociada: Mascota" style="text;strokeColor=none;fillColor=none;align=left;verticalAlign=top;spacingLeft=4;spacingRight=4;overflow=hidden;rotatable=0;points=[[0,0.5],[1,0.5]];portConstraint=eastwest;whiteSpace=wrap;html=1;" vertex="1" parent="1Qj1EWtWnRj9azj7bhN6-23">
          <mxGeometry y="26" width="230" height="104" as="geometry" />
        </mxCell>
        <mxCell id="1Qj1EWtWnRj9azj7bhN6-27" value="Cliente" style="swimlane;fontStyle=1;align=center;verticalAlign=top;childLayout=stackLayout;horizontal=1;startSize=26;horizontalStack=0;resizeParent=1;resizeParentMax=0;resizeLast=0;collapsible=1;marginBottom=0;whiteSpace=wrap;html=1;" vertex="1" parent="1">
          <mxGeometry x="380" y="-930" width="230" height="190" as="geometry" />
        </mxCell>
        <mxCell id="1Qj1EWtWnRj9azj7bhN6-28" value="- nombre: String&lt;br&gt;&lt;br&gt;- apellido: String&lt;br&gt;&lt;br&gt;- mascota: Mascota" style="text;strokeColor=none;fillColor=none;align=left;verticalAlign=top;spacingLeft=4;spacingRight=4;overflow=hidden;rotatable=0;points=[[0,0.5],[1,0.5]];portConstraint=eastwest;whiteSpace=wrap;html=1;" vertex="1" parent="1Qj1EWtWnRj9azj7bhN6-27">
          <mxGeometry y="26" width="230" height="84" as="geometry" />
        </mxCell>
        <mxCell id="1Qj1EWtWnRj9azj7bhN6-29" value="" style="line;strokeWidth=1;fillColor=none;align=left;verticalAlign=middle;spacingTop=-1;spacingLeft=3;spacingRight=3;rotatable=0;labelPosition=right;points=[];portConstraint=eastwest;strokeColor=inherit;" vertex="1" parent="1Qj1EWtWnRj9azj7bhN6-27">
          <mxGeometry y="110" width="230" height="8" as="geometry" />
        </mxCell>
        <mxCell id="1Qj1EWtWnRj9azj7bhN6-30" value="+ dejarMascota(): void&lt;br&gt;&lt;br&gt;+ retirarMascota():Void" style="text;strokeColor=none;fillColor=none;align=left;verticalAlign=top;spacingLeft=4;spacingRight=4;overflow=hidden;rotatable=0;points=[[0,0.5],[1,0.5]];portConstraint=eastwest;whiteSpace=wrap;html=1;" vertex="1" parent="1Qj1EWtWnRj9azj7bhN6-27">
          <mxGeometry y="118" width="230" height="72" as="geometry" />
        </mxCell>
      </root>
    </mxGraphModel>
  </diagram>
</mxfile>
